HIERARCHY
ROOT Hips
{
	OFFSET -3.958830 18.904000 13.208200
	CHANNELS 6 Xposition Yposition Zposition Zrotation Yrotation Xrotation 
	JOINT LHipJoint
	{
		OFFSET 0.000000 0.000000 0.000000
		CHANNELS 3 Zrotation Yrotation Xrotation
		JOINT LeftUpLeg
		{
			OFFSET 1.800000 -1.400000 0.085000
			CHANNELS 3 Zrotation Yrotation Xrotation
			JOINT LeftLeg
			{
				OFFSET 2.215000 -6.000000 0.000000
				CHANNELS 3 Zrotation Yrotation Xrotation
				JOINT LeftFoot
				{
					OFFSET 2.500000 -6.900000 0.000000
					CHANNELS 3 Zrotation Yrotation Xrotation
					JOINT LeftToeBase
					{
						OFFSET 0.200000 -0.500000 1.950000
						CHANNELS 3 Zrotation Yrotation Xrotation
						End Site
						{
							OFFSET 0.000000 0.000000 0.000000
						}
					}
				}
			}
		}
	}
	JOINT RHipJoint
	{
		OFFSET 0.000000 0.000000 0.000000
		CHANNELS 3 Zrotation Yrotation Xrotation
		JOINT RightUpLeg
		{
			OFFSET -1.800000 -1.400000 0.085000
			CHANNELS 3 Zrotation Yrotation Xrotation
			JOINT RightLeg
			{
				OFFSET -2.215000 -6.000000 0.000000
				CHANNELS 3 Zrotation Yrotation Xrotation
				JOINT RightFoot
				{
					OFFSET -2.500000 -6.900000 0.000000
					CHANNELS 3 Zrotation Yrotation Xrotation
					JOINT RightToeBase
					{
						OFFSET -0.200000 -0.500000 1.950000
						CHANNELS 3 Zrotation Yrotation Xrotation
						End Site
						{
							OFFSET 0.000000 0.000000 0.000000
						}
					}
				}
			}
		}
	}
	JOINT LowerBack
	{
		OFFSET 0.000000 0.000000 0.000000
		CHANNELS 3 Zrotation Yrotation Xrotation
		JOINT Spine
		{
			OFFSET -0.087000 1.940000 -0.288900
			CHANNELS 3 Zrotation Yrotation Xrotation
			JOINT Spine1
			{
				OFFSET 0.000000 1.950000 0.060000
				CHANNELS 3 Zrotation Yrotation Xrotation
				JOINT Neck
				{
					OFFSET 0.000000 0.000000 0.000000
					CHANNELS 3 Zrotation Yrotation Xrotation
					JOINT Neck1
					{
						OFFSET 0.000000 1.600000 0.340000
						CHANNELS 3 Zrotation Yrotation Xrotation
						JOINT Head
						{
							OFFSET 0.000000 1.667000 -0.240000
							CHANNELS 3 Zrotation Yrotation Xrotation
							End Site
							{
								OFFSET 0.000000 0.000000 0.000000
							}
						}
					}
				}
				JOINT LeftShoulder
				{
					OFFSET 0.000000 0.000000 0.000000
					CHANNELS 3 Zrotation Yrotation Xrotation
					JOINT LeftArm
					{
						OFFSET 2.700000 1.550000 -0.730000
						CHANNELS 3 Zrotation Yrotation Xrotation
						JOINT LeftForeArm
						{
							OFFSET 5.450000 0.000000 0.000000
							CHANNELS 3 Zrotation Yrotation Xrotation
							JOINT LeftHand
							{
								OFFSET 3.450000 0.000000 0.000000
								CHANNELS 3 Zrotation Yrotation Xrotation
								JOINT LeftHandIndex1
								{
									OFFSET 0.750000 0.000000 0.000000
									CHANNELS 3 Zrotation Yrotation Xrotation
									End Site
									{
										OFFSET 0.000000 0.000000 0.000000
									}
								}
							}
						}
					}
				}
				JOINT RightShoulder
				{
					OFFSET 0.000000 0.000000 0.000000
					CHANNELS 3 Zrotation Yrotation Xrotation
					JOINT RightArm
					{
						OFFSET -2.700000 1.550000 -0.730000
						CHANNELS 3 Zrotation Yrotation Xrotation
						JOINT RightForeArm
						{
							OFFSET -5.450000 0.000000 0.000000
							CHANNELS 3 Zrotation Yrotation Xrotation
							JOINT RightHand
							{
								OFFSET -3.450000 0.000000 0.000000
								CHANNELS 3 Zrotation Yrotation Xrotation
								JOINT RightHandIndex1
								{
									OFFSET -0.750000 0.000000 0.000000
									CHANNELS 3 Zrotation Yrotation Xrotation
									End Site
									{
										OFFSET 0.000000 0.000000 0.000000
									}
								}
							}
						}
					}
				}
			}
		}
	}
}
MOTION
Frames: 8
Frame Time: 0.016667
0.385450 16.676970 -3.324770 0.074201 -11.281490 -0.375536 -15.314033 12.673078 3.039061 2.987672 -4.609137 -14.146344 -14.781105 13.692427 35.982300 -0.251289 8.732479 1.780420 0.219050 -0.136060 -0.017140 18.458643 -8.603465 4.511423 -1.950197 10.157620 -48.315863 -4.864710 -7.089005 58.375456 -1.117165 -8.394018 1.777917 0.136320 0.712050 0.124100 -3.632265 -3.729229 -8.353191 11.340487 -7.121144 19.918625 -1.549849 -5.246349 7.927169 0.497222 -7.124727 -7.992064 -16.518676 10.191612 34.725990 -9.187700 7.190830 -10.690380 -17.675956 -1.084178 1.793114 -27.636786 3.905268 -5.729004 -69.848713 -61.800685 36.950032 -4.094903 2.968267 0.827370 0.439560 -0.294020 0.273900 16.818573 4.127236 4.016217 35.326214 -6.010425 -12.330835 21.782527 43.580085 5.754125 1.323041 -1.344898 -0.651770 0.695970 0.309000 -0.363670 
0.397890 16.627430 -3.347250 -0.192699 -11.534977 -1.060161 -15.337225 12.565174 3.083555 3.946227 -4.953916 -14.477985 -15.754929 14.740973 37.683941 -0.123688 9.207694 1.608038 0.241420 -0.107640 -0.020480 18.463825 -8.376184 4.690032 -1.830660 11.005282 -49.796400 -5.612521 -7.099763 61.565740 -1.280445 -8.919446 1.612248 0.133220 0.691350 0.130690 -3.616365 -3.868121 -8.527000 11.499261 -7.532744 22.309913 -1.592452 -5.393007 6.739090 0.511104 -7.671502 -8.133773 -17.643647 10.968292 34.419838 -8.405500 7.001380 -11.979790 -18.489506 -1.448955 1.761561 -27.892821 4.171665 -6.282365 -67.106567 -61.545684 34.822913 -4.041091 2.972525 0.856520 0.398150 -0.261260 0.283950 17.639219 4.865062 4.125549 35.154936 -5.677844 -12.407740 20.575866 43.837827 5.522450 1.336971 -1.325902 -0.629870 0.694840 0.302550 -0.349240 
0.419790 16.564630 -3.384650 -0.699422 -12.248456 -1.929270 -15.361323 12.373513 3.128130 5.410294 -5.243041 -14.840790 -17.387811 16.267022 39.448451 0.069807 9.792260 1.394399 0.289540 -0.029340 -0.030790 18.486513 -8.048158 4.966048 -1.471313 12.473820 -51.902901 -6.643815 -6.983241 65.874029 -1.510185 -9.620505 1.410101 0.146480 0.647570 0.145480 -3.637448 -3.970100 -8.741655 12.038442 -8.186902 25.516116 -1.904214 -5.599845 5.102493 0.563768 -8.504429 -8.240892 -19.445220 11.742934 34.129603 -7.704180 6.370780 -13.742420 -19.833715 -1.967207 1.683379 -28.553613 4.510962 -7.126292 -61.782641 -60.484000 30.591810 -3.950602 2.986834 0.872620 0.344020 -0.202860 0.312780 18.894145 5.946887 4.196041 34.996939 -4.731616 -12.432328 18.420575 44.214867 5.039512 1.361419 -1.310633 -0.574710 0.681020 0.271470 -0.313760 
0.440050 16.504460 -3.418860 -1.530140 -12.971350 -2.382581 -15.380734 12.172239 3.188413 7.290951 -5.476156 -15.407320 -19.189469 17.840818 40.759445 0.251430 10.335480 1.206983 0.304680 0.003730 -0.046270 18.513005 -7.731052 5.207362 -1.141424 13.858815 -53.827249 -7.429866 -6.997973 69.571560 -1.697587 -10.209401 1.268919 0.135780 0.610740 0.125630 -3.677701 -4.049121 -8.927031 13.013416 -9.061861 28.078119 -2.343598 -5.878276 3.344128 0.792002 -9.259019 -8.622271 -21.322424 12.456231 34.200273 -7.147610 5.758240 -14.958120 -20.720637 -2.737045 1.812082 -30.693821 4.676399 -8.169299 -53.304240 -58.243826 24.064202 -3.849036 2.943072 0.891940 0.289530 -0.167180 0.328730 19.356614 7.178681 4.494330 36.242195 -3.875318 -12.897357 15.703489 45.030168 4.362062 1.385621 -1.263446 -0.546100 0.685700 0.251190 -0.290730 
0.464290 16.469030 -3.445090 -2.229441 -13.846092 -3.123508 -15.396454 12.090075 3.230665 8.789166 -5.406849 -15.158129 -20.701967 18.993578 41.144256 0.401257 10.666080 1.102274 0.295520 0.003740 -0.057410 18.517985 -7.522987 5.353880 -0.788524 14.897305 -54.554151 -7.925898 -6.985801 71.975953 -1.826675 -10.552705 1.194299 0.102480 0.573430 0.097730 -3.681998 -4.160094 -9.054863 13.859368 -9.839716 30.431549 -2.814719 -6.050135 1.689241 1.214483 -9.819475 -9.277773 -23.406517 13.397631 35.533224 -6.672970 5.304760 -15.732120 -21.714094 -4.007213 2.089989 -33.349885 4.564918 -9.253437 -43.043611 -54.761861 16.716515 -3.747239 2.850508 0.917220 0.228440 -0.130040 0.328980 19.571764 8.803086 5.081315 37.867941 -3.310767 -13.661377 13.885201 46.130143 3.857817 1.424065 -1.200570 -0.525070 0.696500 0.241350 -0.272050 
0.470540 16.449410 -3.459120 -2.414724 -14.259983 -3.588992 -15.414072 12.083152 3.282272 9.599760 -5.355232 -14.889420 -21.826197 19.628827 40.990793 0.495638 10.799668 1.052178 0.316110 0.026370 -0.030180 18.502647 -7.428347 5.388125 -0.675909 15.269916 -54.524878 -8.230757 -6.901691 73.047374 -1.898927 -10.688159 1.155272 0.087720 0.516300 0.095810 -3.639174 -4.283031 -9.133060 13.866523 -10.228959 31.572930 -3.155644 -6.234966 0.303663 1.589153 -9.835275 -9.522586 -24.273655 13.946762 37.182466 -6.942320 5.281980 -16.091120 -22.934293 -4.962069 2.019972 -35.306534 3.501774 -9.476498 -33.655862 -49.187467 10.444070 -3.671001 2.779963 0.931310 0.180120 -0.086030 0.327980 20.086524 9.686049 5.347445 40.095597 -2.707385 -14.372469 12.659845 47.068068 3.394489 1.460305 -1.179721 -0.489640 0.673130 0.213150 -0.266940 
0.464800 16.443960 -3.454930 -2.430423 -13.908620 -3.936296 -15.412482 12.147442 3.331752 10.087784 -5.362200 -14.535795 -22.375903 19.823231 40.740346 0.518000 10.832591 1.037194 0.310810 0.035010 -0.036270 18.486944 -7.472350 5.284390 -0.612392 14.895708 -53.588028 -8.600615 -6.755911 73.105832 -1.912951 -10.662180 1.178231 0.080990 0.499680 0.074870 -3.607919 -4.386673 -9.132939 13.786883 -10.690632 31.464690 -3.507158 -6.708997 -0.549689 1.839438 -9.738769 -9.791535 -25.109755 14.715143 39.138879 -6.964500 5.288150 -16.341660 -23.814184 -5.938904 2.040369 -37.436163 2.170675 -9.113923 -25.467857 -42.042433 5.552885 -3.641450 2.642871 0.951370 0.156110 -0.062500 0.327280 20.528465 10.333483 5.524240 42.596248 -2.130019 -15.035949 12.161340 47.320229 3.011973 1.474287 -1.121352 -0.488800 0.697670 0.212940 -0.261910 
0.450420 16.454350 -3.440770 -2.038551 -14.074511 -3.862382 -15.409977 12.234162 3.369818 10.130103 -5.117414 -14.268822 -22.966446 19.819588 39.801416 0.529333 10.734132 1.061688 0.306770 0.037960 -0.036030 18.468106 -7.560814 5.158398 -0.349047 14.531475 -52.149988 -9.307741 -5.963043 71.916817 -1.858026 -10.397734 1.254478 0.069080 0.484530 0.069920 -3.575217 -4.454018 -9.101575 13.293757 -10.585547 30.162827 -3.751738 -6.890122 -0.899667 1.987010 -9.580604 -10.035204 -25.810618 15.505506 40.861830 -6.850710 5.430170 -15.656810 -24.111175 -6.374637 2.042721 -40.185710 0.655010 -8.139908 -18.811372 -34.380840 2.280213 -3.648909 2.537225 0.945500 0.144240 -0.050310 0.318990 20.588625 10.499248 5.616717 45.233922 -1.748265 -15.635873 13.605247 48.307572 3.322818 1.501074 -1.109326 -0.470800 0.693330 0.213560 -0.254940 
